<svg width="170" height="45" viewBox="0 0 170 45" fill="none" xmlns="http://www.w3.org/2000/svg">
<g clip-path="url(#clip0_52_1985)">
<mask id="mask0_52_1985" style="mask-type:luminance" maskUnits="userSpaceOnUse" x="0" y="0" width="173" height="45">
<path d="M172.252 0H0V45H172.252V0Z" fill="white"/>
</mask>
<g mask="url(#mask0_52_1985)">
<path d="M17.8582 1.43487V13.6313V15.0662C27.6621 17.9359 32.5162 26.7842 33.7176 30.8499H45.2516C46.405 30.8499 46.6933 29.8933 46.6933 29.415V15.0662C46.6933 13.9183 45.7322 13.6313 45.2516 13.6313H33.7176V1.43487C33.7176 0.286973 32.7565 0 32.2757 0H19.2999C18.1465 0 17.8582 0.956582 17.8582 1.43487Z" fill="#0088F5"/>
<path d="M33.1798 32.3715C25.3727 12.9506 7.87621 12.8866 0.383404 14.3299C3.62618 20.392 12.0525 23.8318 15.8603 24.7939C5.24758 22.4846 0.874737 17.0961 0.0149051 14.6906C-0.574692 29.4126 16.4745 31.8902 25.0727 31.2889C28.0208 31.0003 30.2317 33.093 30.9687 34.1756V42.8355H19.1768V33.4539C18.5872 32.2993 17.4571 32.0106 16.9658 32.0106V44.2789C16.9658 44.8562 17.9485 45.0004 18.4398 45.0004H31.7057C32.2952 45.0004 32.9341 44.5194 33.1798 44.2789V32.3715Z" fill="url(#paint0_linear_52_1985)"/>
<path d="M62.2542 40.7143H61.6319V36.1971H58.85V40.7143H58.2278V35.6143H62.2542V40.7143ZM66.0812 39.8181L66.3594 40.2407C66.0764 40.605 65.6542 40.7871 65.0929 40.7871C64.5658 40.7871 64.1388 40.6318 63.8117 40.3209C63.4896 40.0099 63.3286 39.5946 63.3286 39.075C63.3286 38.5941 63.4873 38.1885 63.8044 37.8583C64.1218 37.5281 64.5195 37.3629 64.9977 37.3629C65.5737 37.3629 66.0056 37.5062 66.2935 37.7927L66.0226 38.2517C65.769 38.0235 65.4542 37.9093 65.0782 37.9093C64.7708 37.9093 64.5048 38.0209 64.2803 38.2444C64.0607 38.463 63.9508 38.7399 63.9508 39.075C63.9508 39.4296 64.0632 39.7112 64.2876 39.9201C64.5171 40.1338 64.8 40.2407 65.1368 40.2407C65.5175 40.2407 65.8323 40.0999 66.0812 39.8181ZM69.6119 38.2736L67.7085 40.7143H67.1229V37.4357H67.7085V39.8764L69.6119 37.4357H70.1975V40.7143H69.6119V38.2736ZM73.5095 37.4357H74.1903L73.0117 39.0167L74.2635 40.7143H73.5461L72.5798 39.3883L71.5988 40.7143H70.918L72.1625 39.0459L70.9912 37.4357H71.7086L72.6018 38.6743L73.5095 37.4357ZM77.4616 38.2736L75.5582 40.7143H74.9726V37.4357H75.5582V39.8764L77.4616 37.4357H78.0473V40.7143H77.4616V38.2736ZM79.2877 38.1279L79.134 37.6616C79.4608 37.4625 79.8268 37.3629 80.2321 37.3629C80.676 37.3629 80.9982 37.4721 81.1984 37.6907C81.3984 37.9093 81.4985 38.2468 81.4985 38.7034V40.7143H80.9422V40.2917C80.6834 40.6074 80.332 40.7653 79.888 40.7653C79.5853 40.7653 79.3413 40.6755 79.1559 40.4957C78.9703 40.3112 78.8777 40.0635 78.8777 39.7526C78.8777 39.432 78.9923 39.1794 79.2218 38.9949C79.4511 38.8054 79.7513 38.7107 80.1223 38.7107C80.4687 38.7107 80.7419 38.7812 80.9422 38.922C80.9422 38.5528 80.8909 38.2881 80.7884 38.1279C80.686 37.9676 80.4883 37.8874 80.1955 37.8874C79.8977 37.8874 79.5952 37.9676 79.2877 38.1279ZM80.093 40.2407C80.4198 40.2407 80.703 40.0999 80.9422 39.8181V39.4029C80.7372 39.2571 80.4907 39.1843 80.2028 39.1843C80.0025 39.1843 79.8342 39.2329 79.6977 39.33C79.5659 39.4224 79.5 39.5535 79.5 39.7234C79.5 39.8837 79.5512 40.0099 79.6537 40.1023C79.761 40.1946 79.9074 40.2407 80.093 40.2407ZM83.2697 38.0186H82.0618V37.4357H85.0633V38.0186H83.8554V40.7143H83.2697V38.0186ZM86.2891 42.1714H85.7034V37.4357H86.2891V37.8219C86.4062 37.6858 86.5673 37.5765 86.7723 37.494C86.9772 37.4066 87.1895 37.3629 87.4092 37.3629C87.8777 37.3629 88.2461 37.5182 88.5146 37.8291C88.7928 38.1351 88.9319 38.5335 88.9319 39.024C88.9319 39.5244 88.7732 39.9444 88.456 40.2844C88.1436 40.6196 87.7313 40.7871 87.2188 40.7871C86.8235 40.7871 86.5134 40.7119 86.2891 40.5613V42.1714ZM87.2408 37.9093C86.8502 37.9093 86.533 38.0599 86.2891 38.361V39.9857C86.5477 40.1556 86.8405 40.2407 87.1676 40.2407C87.514 40.2407 87.7898 40.1314 87.9948 39.9129C88.2045 39.6894 88.3096 39.4005 88.3096 39.0459C88.3096 38.7011 88.2144 38.4266 88.0241 38.2226C87.8338 38.0136 87.5726 37.9093 87.2408 37.9093ZM92.2602 38.2736L90.3568 40.7143H89.7712V37.4357H90.3568V39.8764L92.2602 37.4357H92.8458V40.7143H92.2602V38.2736ZM95.3528 37.4357H96.3776V40.7143H95.792V39.6214H95.1551L94.3498 40.7143H93.6397L94.5914 39.4757C94.3914 39.432 94.223 39.3251 94.0863 39.1551C93.9496 38.9803 93.8813 38.7714 93.8813 38.5286C93.8813 38.1934 94.0034 37.9288 94.2473 37.7344C94.4913 37.5354 94.8599 37.4357 95.3528 37.4357ZM94.5036 38.5431C94.5036 38.6985 94.5645 38.8273 94.6866 38.9293C94.8087 39.0264 94.9525 39.075 95.1185 39.075H95.792V37.9821H95.2576C95.0087 37.9821 94.8207 38.0331 94.6939 38.1351C94.5671 38.2371 94.5036 38.3732 94.5036 38.5431ZM97.2811 40.3209C97.2811 40.2189 97.3203 40.1291 97.3982 40.0513C97.4813 39.9735 97.5813 39.9347 97.6984 39.9347C97.8009 39.9347 97.8913 39.9735 97.9693 40.0513C98.0474 40.1291 98.0864 40.2189 98.0864 40.3209C98.0864 40.4374 98.0498 40.5371 97.9766 40.6196C97.9034 40.6974 97.8108 40.7361 97.6984 40.7361C97.5813 40.7361 97.4813 40.6974 97.3982 40.6196C97.3203 40.5371 97.2811 40.4374 97.2811 40.3209ZM104.599 40.7143H103.977V38.4047H101.158V40.7143H100.536V35.6143H101.158V37.8219H103.977V35.6143H104.599V40.7143ZM106.068 38.1279L105.914 37.6616C106.241 37.4625 106.607 37.3629 107.012 37.3629C107.457 37.3629 107.779 37.4721 107.979 37.6907C108.179 37.9093 108.279 38.2468 108.279 38.7034V40.7143H107.723V40.2917C107.464 40.6074 107.113 40.7653 106.668 40.7653C106.366 40.7653 106.122 40.6755 105.936 40.4957C105.751 40.3112 105.658 40.0635 105.658 39.7526C105.658 39.432 105.773 39.1794 106.002 38.9949C106.232 38.8054 106.532 38.7107 106.903 38.7107C107.249 38.7107 107.523 38.7812 107.723 38.922C107.723 38.5528 107.671 38.2881 107.569 38.1279C107.466 37.9676 107.269 37.8874 106.976 37.8874C106.678 37.8874 106.376 37.9676 106.068 38.1279ZM106.873 40.2407C107.2 40.2407 107.484 40.0999 107.723 39.8181V39.4029C107.518 39.2571 107.271 39.1843 106.983 39.1843C106.783 39.1843 106.615 39.2329 106.478 39.33C106.346 39.4224 106.28 39.5535 106.28 39.7234C106.28 39.8837 106.332 40.0099 106.434 40.1023C106.542 40.1946 106.688 40.2407 106.873 40.2407ZM109.845 42.1714H109.26V37.4357H109.845V37.8219C109.962 37.6858 110.124 37.5765 110.329 37.494C110.534 37.4066 110.746 37.3629 110.965 37.3629C111.434 37.3629 111.802 37.5182 112.071 37.8291C112.349 38.1351 112.488 38.5335 112.488 39.024C112.488 39.5244 112.329 39.9444 112.012 40.2844C111.7 40.6196 111.288 40.7871 110.775 40.7871C110.38 40.7871 110.07 40.7119 109.845 40.5613V42.1714ZM110.797 37.9093C110.407 37.9093 110.089 38.0599 109.845 38.361V39.9857C110.104 40.1556 110.397 40.2407 110.724 40.2407C111.07 40.2407 111.346 40.1314 111.551 39.9129C111.761 39.6894 111.866 39.4005 111.866 39.0459C111.866 38.7011 111.771 38.4266 111.58 38.2226C111.39 38.0136 111.129 37.9093 110.797 37.9093ZM115.443 37.4357H116.212L114.77 39.0021L116.351 40.7143H115.538L114.052 39.0386L115.443 37.4357ZM113.913 40.7143H113.328V37.4357H113.913V40.7143ZM117.058 40.3063C116.736 39.9761 116.575 39.5655 116.575 39.075C116.575 38.5796 116.736 38.1716 117.058 37.851C117.385 37.5255 117.81 37.3629 118.332 37.3629C118.855 37.3629 119.277 37.5255 119.599 37.851C119.926 38.1716 120.089 38.5796 120.089 39.075C120.089 39.5704 119.926 39.9808 119.599 40.3063C119.277 40.6269 118.855 40.7871 118.332 40.7871C117.815 40.7871 117.39 40.6269 117.058 40.3063ZM117.52 38.2371C117.305 38.4508 117.197 38.7302 117.197 39.075C117.197 39.4198 117.303 39.6992 117.512 39.9129C117.727 40.1314 118 40.2407 118.332 40.2407C118.664 40.2407 118.935 40.1338 119.145 39.9201C119.36 39.7016 119.467 39.4198 119.467 39.075C119.467 38.7399 119.36 38.4606 119.145 38.2371C118.935 38.0186 118.664 37.9093 118.332 37.9093C118 37.9093 117.73 38.0186 117.52 38.2371ZM123.646 40.7143H123.06V38.0186H121.904L121.867 38.5723C121.828 39.024 121.769 39.4005 121.691 39.7016C121.618 39.9979 121.521 40.2212 121.398 40.3719C121.281 40.5176 121.157 40.6196 121.025 40.6779C120.893 40.7312 120.732 40.758 120.542 40.758L120.498 40.1897C120.552 40.1946 120.608 40.1874 120.666 40.1679C120.725 40.1436 120.789 40.095 120.857 40.0221C120.93 39.9493 120.993 39.8522 121.047 39.7307C121.106 39.6092 121.157 39.4393 121.201 39.2207C121.25 38.9972 121.281 38.7422 121.296 38.4557L121.355 37.4357H123.646V40.7143ZM124.965 40.3063C124.643 39.9761 124.482 39.5655 124.482 39.075C124.482 38.5796 124.643 38.1716 124.965 37.851C125.292 37.5255 125.717 37.3629 126.239 37.3629C126.761 37.3629 127.184 37.5255 127.506 37.851C127.833 38.1716 127.996 38.5796 127.996 39.075C127.996 39.5704 127.833 39.9808 127.506 40.3063C127.184 40.6269 126.761 40.7871 126.239 40.7871C125.722 40.7871 125.297 40.6269 124.965 40.3063ZM125.427 38.2371C125.212 38.4508 125.104 38.7302 125.104 39.075C125.104 39.4198 125.209 39.6992 125.419 39.9129C125.634 40.1314 125.907 40.2407 126.239 40.2407C126.571 40.2407 126.842 40.1338 127.052 39.9201C127.266 39.7016 127.374 39.4198 127.374 39.075C127.374 38.7399 127.266 38.4606 127.052 38.2371C126.842 38.0186 126.571 37.9093 126.239 37.9093C125.907 37.9093 125.637 38.0186 125.427 38.2371ZM129.427 40.7143H128.841V37.4357H130.927V37.9821H129.427V40.7143ZM133.983 38.2736L132.079 40.7143H131.494V37.4357H132.079V39.8764L133.983 37.4357H134.568V40.7143H133.983V38.2736ZM137.075 37.4357H138.1V40.7143H137.514V39.6214H136.877L136.072 40.7143H135.362L136.314 39.4757C136.114 39.432 135.945 39.3251 135.808 39.1551C135.672 38.9803 135.603 38.7714 135.603 38.5286C135.603 38.1934 135.726 37.9288 135.969 37.7344C136.214 37.5354 136.582 37.4357 137.075 37.4357ZM136.226 38.5431C136.226 38.6985 136.287 38.8273 136.409 38.9293C136.531 39.0264 136.675 39.075 136.841 39.075H137.514V37.9821H136.98C136.731 37.9821 136.543 38.0331 136.416 38.1351C136.289 38.2371 136.226 38.3732 136.226 38.5431ZM139.003 40.3209C139.003 40.2189 139.042 40.1291 139.121 40.0513C139.204 39.9735 139.304 39.9347 139.421 39.9347C139.523 39.9347 139.613 39.9735 139.692 40.0513C139.77 40.1291 139.809 40.2189 139.809 40.3209C139.809 40.4374 139.772 40.5371 139.699 40.6196C139.626 40.6974 139.533 40.7361 139.421 40.7361C139.304 40.7361 139.204 40.6974 139.121 40.6196C139.042 40.5371 139.003 40.4374 139.003 40.3209ZM143.357 36.1971H141.563V35.6143H145.773V36.1971H143.979V40.7143H143.357V36.1971ZM148.004 39.8983L148.188 40.3573C147.87 40.6438 147.458 40.7871 146.95 40.7871C146.414 40.7871 145.986 40.6318 145.669 40.3209C145.347 40.0099 145.186 39.5946 145.186 39.075C145.186 38.5845 145.337 38.1765 145.64 37.851C145.938 37.5255 146.352 37.3629 146.884 37.3629C147.324 37.3629 147.687 37.5036 147.975 37.7854C148.268 38.0623 148.414 38.4216 148.414 38.8637C148.414 39.0045 148.402 39.1356 148.378 39.2571H145.845C145.869 39.5631 145.984 39.8036 146.189 39.9784C146.399 40.1533 146.667 40.2407 146.994 40.2407C147.424 40.2407 147.761 40.1265 148.004 39.8983ZM146.855 37.9093C146.567 37.9093 146.328 37.9894 146.138 38.1497C145.952 38.31 145.843 38.5213 145.808 38.7836H147.807C147.792 38.5116 147.699 38.2978 147.529 38.1424C147.363 37.9871 147.138 37.9093 146.855 37.9093ZM149.795 42.1714H149.209V37.4357H149.795V37.8219C149.912 37.6858 150.073 37.5765 150.278 37.494C150.483 37.4066 150.695 37.3629 150.915 37.3629C151.383 37.3629 151.752 37.5182 152.02 37.8291C152.298 38.1351 152.437 38.5335 152.437 39.024C152.437 39.5244 152.279 39.9444 151.962 40.2844C151.649 40.6196 151.237 40.7871 150.724 40.7871C150.329 40.7871 150.019 40.7119 149.795 40.5613V42.1714ZM150.746 37.9093C150.356 37.9093 150.039 38.0599 149.795 38.361V39.9857C150.053 40.1556 150.346 40.2407 150.673 40.2407C151.02 40.2407 151.295 40.1314 151.5 39.9129C151.71 39.6894 151.815 39.4005 151.815 39.0459C151.815 38.7011 151.72 38.4266 151.53 38.2226C151.339 38.0136 151.078 37.9093 150.746 37.9093ZM153.453 38.1279L153.299 37.6616C153.626 37.4625 153.992 37.3629 154.397 37.3629C154.841 37.3629 155.163 37.4721 155.363 37.6907C155.563 37.9093 155.663 38.2468 155.663 38.7034V40.7143H155.107V40.2917C154.848 40.6074 154.497 40.7653 154.053 40.7653C153.75 40.7653 153.506 40.6755 153.321 40.4957C153.135 40.3112 153.043 40.0635 153.043 39.7526C153.043 39.432 153.157 39.1794 153.387 38.9949C153.616 38.8054 153.916 38.7107 154.287 38.7107C154.634 38.7107 154.907 38.7812 155.107 38.922C155.107 38.5528 155.056 38.2881 154.953 38.1279C154.851 37.9676 154.653 37.8874 154.36 37.8874C154.063 37.8874 153.76 37.9676 153.453 38.1279ZM154.258 40.2407C154.585 40.2407 154.868 40.0999 155.107 39.8181V39.4029C154.902 39.2571 154.656 39.1843 154.368 39.1843C154.167 39.1843 153.999 39.2329 153.863 39.33C153.731 39.4224 153.665 39.5535 153.665 39.7234C153.665 39.8837 153.716 40.0099 153.819 40.1023C153.926 40.1946 154.072 40.2407 154.258 40.2407ZM159.609 40.7143H159.023V37.9821H157.23V40.7143H156.644V37.4357H159.609V40.7143ZM163.158 38.2736L161.255 40.7143H160.669V37.4357H161.255V39.8764L163.158 37.4357H163.744V40.7143H163.158V38.2736ZM166.25 37.4357H167.275V40.7143H166.69V39.6214H166.053L165.248 40.7143H164.537L165.489 39.4757C165.289 39.432 165.121 39.3251 164.984 39.1551C164.847 38.9803 164.779 38.7714 164.779 38.5286C164.779 38.1934 164.901 37.9288 165.145 37.7344C165.389 37.5354 165.758 37.4357 166.25 37.4357ZM165.401 38.5431C165.401 38.6985 165.462 38.8273 165.584 38.9293C165.706 39.0264 165.85 39.075 166.016 39.075H166.69V37.9821H166.155C165.906 37.9821 165.719 38.0331 165.592 38.1351C165.465 38.2371 165.401 38.3732 165.401 38.5431ZM168.179 40.3209C168.179 40.2189 168.218 40.1291 168.296 40.0513C168.379 39.9735 168.479 39.9347 168.596 39.9347C168.699 39.9347 168.789 39.9735 168.867 40.0513C168.945 40.1291 168.984 40.2189 168.984 40.3209C168.984 40.4374 168.948 40.5371 168.875 40.6196C168.801 40.6974 168.708 40.7361 168.596 40.7361C168.479 40.7361 168.379 40.6974 168.296 40.6196C168.218 40.5371 168.179 40.4374 168.179 40.3209Z" fill="#729CB0"/>
<path d="M61.0139 31.3393H57.7949V24.6536H59.8942C60.4541 24.0036 61.0606 22.5643 61.7136 20.3357C62.3854 18.0514 62.7868 15.3586 62.9173 12.2571L63.1132 8.35714H75.2612V24.6536H77.9204V31.3393H74.7014V27.8571H61.0139V31.3393ZM66.4441 11.5607L66.1362 14.9593C65.9683 17.2993 65.6231 19.3514 65.1005 21.1157C64.5595 22.9543 64.0836 24.1335 63.673 24.6536H71.8463V11.5607H66.4441ZM92.9476 27.8571H81.3314V8.35714H92.6677V11.5607H84.7743V16.4079H91.828V19.6114H84.7743V24.6536H92.9476V27.8571ZM101.35 11.5607H94.9963V8.35714H111.147V11.5607H104.793V27.8571H101.35V11.5607ZM111.776 18.1071C111.776 15.2657 112.727 12.8793 114.631 10.9479C116.571 9.01643 119.016 8.05071 121.964 8.05071C124.913 8.05071 127.348 8.97928 129.27 10.8364C131.211 12.7121 132.181 15.1357 132.181 18.1071C132.181 21.0229 131.211 23.4279 129.27 25.3221C127.329 27.2164 124.894 28.1636 121.964 28.1636C119.016 28.1636 116.581 27.2351 114.659 25.3779C112.737 23.5206 111.776 21.0971 111.776 18.1071ZM115.414 18.1071C115.414 20.0757 116.04 21.7099 117.29 23.01C118.54 24.3101 120.098 24.96 121.964 24.96C123.98 24.96 125.575 24.3101 126.751 23.01C127.945 21.7099 128.542 20.0757 128.542 18.1071C128.542 16.12 127.908 14.4764 126.639 13.1764C125.37 11.895 123.812 11.2543 121.964 11.2543C120.08 11.2543 118.512 11.895 117.262 13.1764C116.03 14.4579 115.414 16.1014 115.414 18.1071ZM139.608 27.8571H136.165V8.35714H139.608V17.6057L147.333 8.35714H151.476L143.415 17.4386L151.98 27.8571H147.613L139.608 17.8007V27.8571ZM167.482 23.4L168.797 25.9629C168.182 26.6128 167.295 27.1421 166.138 27.5507C165 27.9594 163.796 28.1636 162.527 28.1636C159.542 28.1636 157.106 27.2443 155.222 25.4057C153.356 23.5671 152.423 21.1343 152.423 18.1071C152.423 15.21 153.309 12.805 155.082 10.8921C156.836 8.99786 159.29 8.05071 162.443 8.05071C164.944 8.05071 166.931 8.71001 168.405 10.0286L166.866 12.5636C165.541 11.6907 164.067 11.2543 162.443 11.2543C160.577 11.2543 159.047 11.8764 157.853 13.1207C156.659 14.365 156.061 16.0271 156.061 18.1071C156.061 20.15 156.687 21.8029 157.937 23.0657C159.206 24.3285 160.838 24.96 162.835 24.96C164.552 24.96 166.101 24.4399 167.482 23.4Z" fill="#3F3F3F"/>
</g>
</g>
<defs>
<linearGradient id="paint0_linear_52_1985" x1="18.0564" y1="23.3034" x2="16.65" y2="45.0045" gradientUnits="userSpaceOnUse">
<stop stop-color="#01D4A1"/>
<stop offset="0.278753" stop-color="#01C0A8"/>
<stop offset="0.575881" stop-color="#01B8AB"/>
<stop offset="0.808013" stop-color="#018BF2"/>
<stop offset="1" stop-color="#0088F5"/>
</linearGradient>
<clipPath id="clip0_52_1985">
<rect width="170" height="45" fill="white"/>
</clipPath>
</defs>
</svg>
