<svg width="26" height="20" viewBox="0 0 26 20" fill="none" xmlns="http://www.w3.org/2000/svg">
<path d="M0 20V14.2777C0 12.6321 0.306867 10.921 0.920601 9.14446C1.55293 7.34923 2.40844 5.65685 3.48712 4.06732C4.58441 2.4591 5.81187 1.10332 7.16953 0L11.8562 3.0575C10.7589 4.72183 9.83834 6.46096 9.09442 8.2749C8.3691 10.0701 8.01574 12.0524 8.03433 14.2216V20H0ZM14.1438 20V14.2777C14.1438 12.6321 14.4506 10.921 15.0644 9.14446C15.6967 7.34923 16.5522 5.65685 17.6309 4.06732C18.7282 2.4591 19.9557 1.10332 21.3133 0L26 3.0575C24.9027 4.72183 23.9821 6.46096 23.2382 8.2749C22.5129 10.0701 22.1595 12.0524 22.1781 14.2216V20H14.1438Z" fill="#0DA3FF"/>
</svg>
